<?xml version='1.0' encoding='UTF-8'?>
<svg xmlns="http://www.w3.org/2000/svg" shape-rendering="geometricPrecision" width="932" height="230" viewBox="46 396 932 230">
  <metadata>null</metadata>

<path d=" M 46.958 497.607 C 48.002 490.502 47.917 483.218 49.013 476.099 C 51.94 457.09 56.169 438.494 62.944 420.457 C 65.102 414.713 67.392 409.017 69.911 403.421 C 70.871 401.289 71.67 398.323 73.184 396.541 C 75.583 396.423 78.103 397.121 80.459 397.536 C 84.507 398.249 88.562 398.951 92.624 399.574 C 106.077 401.639 119.839 403.059 133.435 403.619 C 156.332 404.561 179.185 403.809 201.934 401.079 C 212.341 399.83 222.49 397.211 232.843 395.792 C 233.631 396.621 233.941 397.985 234.396 399.018 C 235.56 401.659 236.725 404.302 237.88 406.948 C 242.338 417.168 246.484 427.69 249.599 438.403 C 262.56 482.977 265.788 529.52 253.195 574.61 C 249.506 587.817 244.935 600.569 238.837 612.871 C 237.3 615.971 235.681 619.062 233.94 622.053 C 233.366 623.039 232.789 624.725 231.852 625.398 C 228.898 625.293 225.878 624.401 222.962 623.93 C 215.441 622.716 207.939 621.426 200.366 620.561 C 180.749 618.32 160.625 617.775 140.895 618.405 C 125.125 618.909 109.444 619.84 93.79 621.833 C 89.224 622.415 84.592 623.071 80.086 624.016 C 77.764 624.502 74.401 625.712 72.066 625.422 C 53.161 585.86 43.778 541.562 46.958 497.607 Z M 52.881 507.501 C 52.591 511.141 52.753 514.847 52.775 518.495 C 52.782 519.642 52.354 521.943 52.979 522.89 C 58.237 522.576 64.006 523.704 69.185 522.808 C 68.699 517.55 68.771 512.251 68.319 506.994 C 67.761 506.416 65.354 506.816 64.503 506.804 C 60.732 506.751 56.894 506.609 53.138 506.974 C 53.053 507.15 52.967 507.325 52.881 507.501 Z M 53.922 492.105 C 53.783 493.464 52.97 496.949 53.943 497.949 C 57.631 498.018 61.315 497.999 65 497.944 C 66.02 497.929 67.933 498.371 68.833 497.923 C 69.001 494.085 69.576 490.218 69.975 486.394 C 70.098 485.215 70.762 482.845 70.223 481.797 C 65.291 481.549 60.219 481.595 55.283 481.754 C 53.78 484.448 54.463 489.06 53.922 492.105 Z M 53.821 532.303 C 54.356 537.377 54.52 542.511 55.42 547.544 C 56.631 547.947 58.228 547.665 59.501 547.658 C 62.164 547.642 64.827 547.631 67.49 547.591 C 68.661 547.573 70.41 547.884 71.46 547.293 C 71.152 542.231 70.159 537.21 69.761 532.155 C 67.26 531.807 64.526 532.058 62 532.066 C 59.314 532.074 56.471 531.818 53.821 532.303 Z M 56.426 470.579 C 56.277 471.364 56.209 472.122 56.218 472.922 C 61.117 473.536 66.852 473.456 71.791 473.155 C 72.416 470.715 72.671 468.174 73.258 465.719 C 73.927 462.928 74.928 460.008 75.228 457.156 C 70.068 457.104 64.394 456.494 59.284 457.21 C 58.249 461.642 57.495 466.161 56.426 470.579 Z M 57.404 557.011 C 58.162 561.99 58.822 567.054 60.284 571.887 C 61.647 572.323 63.556 571.902 64.998 571.896 C 68.593 571.882 72.337 572.136 75.912 571.791 C 75.671 568.742 74.643 565.693 74.016 562.703 C 73.595 560.693 73.507 558.221 72.732 556.332 C 67.713 556.17 62.652 556.486 57.635 556.564 C 57.558 556.713 57.481 556.862 57.404 557.011 Z M 61.865 446.553 C 61.782 447.097 61.708 447.642 61.626 448.186 C 63.129 448.784 65.375 448.373 66.997 448.363 C 70.574 448.34 74.154 448.412 77.729 448.326 C 78.696 447.041 78.862 445.047 79.382 443.549 C 80.598 440.04 81.995 436.492 82.98 432.914 C 81.163 432.365 78.887 432.682 76.999 432.669 C 73.286 432.645 69.553 432.572 65.844 432.735 C 64.574 437.29 63.362 442.075 61.865 446.553 Z M 62.752 580.867 C 62.572 582.456 63.404 584.401 63.825 585.944 C 64.744 589.316 65.711 592.744 66.984 596 C 68.343 596.39 70.229 596.054 71.64 595.946 C 75.384 595.66 80.075 595.224 83.773 595.8 C 81.738 590.953 80.935 585.516 78.692 580.788 C 73.492 580.439 67.953 580.562 62.752 580.867 Z M 69.411 423.143 C 69.374 423.304 69.336 423.466 69.299 423.627 C 73.193 423.694 77.099 423.716 81.001 423.737 C 82.513 423.745 85.079 424.183 86.462 423.565 C 87.952 421.108 88.957 418.269 90.167 415.663 C 90.823 414.249 91.877 412.778 92.239 411.266 C 87.792 411.048 83.362 410.76 78.901 410.73 C 77.546 410.721 75.136 410.177 73.964 410.78 C 72.464 414.897 70.932 419.044 69.411 423.143 Z M 70.332 604.926 C 71.575 608.236 72.983 611.574 74.429 614.802 C 74.912 615.88 75.249 617.526 76.09 618.351 C 80.556 618.415 85.033 618.266 89.5 618.244 C 90.479 618.239 93.74 618.685 94.456 618.045 C 92.724 615.048 91.359 611.8 89.774 608.719 C 89.112 607.432 88.585 605.77 87.606 604.697 C 81.882 605.153 76.046 604.353 70.332 604.926 Z M 74.927 500.609 C 73.795 517.594 75.85 534.849 78.361 551.618 C 79.04 556.152 79.568 560.717 80.394 565.227 C 80.78 567.337 80.685 569.462 81.508 571.47 C 82.276 569.795 81.755 566.832 81.759 565.009 C 81.768 560.86 81.993 556.634 82.369 552.501 C 83.607 538.877 85.644 525.463 88.669 512.131 C 94.474 513.61 100.005 517.991 105.157 520.951 C 115.7 527.009 126.194 533.154 136.733 539.217 C 140.071 541.137 143.432 543.014 146.771 544.93 C 148.314 545.815 150.247 547.442 152.002 547.736 C 154.311 546.948 156.502 545.385 158.633 544.201 C 162.788 541.893 166.928 539.567 171.033 537.17 C 181.137 531.269 191.472 525.769 201.655 520.011 C 205.164 518.026 208.647 515.993 212.158 514.012 C 213.797 513.088 215.647 511.769 217.48 511.31 C 218.148 513.169 218.308 515.406 218.676 517.354 C 219.374 521.044 220.062 524.734 220.71 528.433 C 223.127 542.231 224.413 555.947 224.474 569.942 C 225.351 567.923 225.467 565.679 226.004 563.568 C 227.307 558.446 228.139 553.258 228.999 548.047 C 231.157 534.972 232.619 521.981 232.569 508.713 C 232.533 499.036 231.273 489.525 230.111 479.942 C 229.194 472.381 228.038 464.754 226.017 457.402 C 225.461 455.376 225.379 452.255 224.111 450.559 C 206.263 458.927 189.66 469.7 172.317 479.022 C 167.857 481.419 163.454 483.941 159.039 486.42 C 157.046 487.54 154.648 489.422 152.417 489.919 C 150.838 489.695 149.297 488.175 147.933 487.378 C 144.774 485.534 141.624 483.667 138.436 481.873 C 125.668 474.69 113.313 466.829 100.654 459.464 C 96.523 457.06 92.372 454.696 88.173 452.412 C 87.027 451.789 85.93 451.063 84.754 450.502 C 84.407 450.336 84.113 449.885 83.737 449.96 C 83.263 450.056 82.841 452.648 82.742 453.03 C 81.979 455.985 81.255 458.944 80.669 461.941 C 79.097 469.979 77.906 478.078 76.389 486.108 C 75.488 490.876 75.749 495.844 74.927 500.609 Z M 210.862 617.16 C 210.837 617.325 210.811 617.49 210.786 617.655 C 214.844 617.834 218.933 617.753 223.003 617.798 C 224.854 617.818 227.302 618.261 229.085 617.762 C 230.916 615.097 231.949 611.76 233.283 608.823 C 233.678 607.952 234.093 607.091 234.489 606.221 C 234.73 605.691 234.731 605.657 234.974 605.165 C 234.993 605.127 235.414 604.519 235.235 604.553 C 233.593 604.798 231.776 604.467 230.116 604.426 C 227.399 604.358 224.679 604.418 221.962 604.43 C 220.663 604.436 217.947 603.952 216.943 604.833 C 214.822 608.862 213.217 613.269 210.862 617.16 Z M 213.963 411.241 C 215.954 415.188 217.199 419.499 219.257 423.402 C 221.378 423.89 223.775 423.446 225.937 423.429 C 229.738 423.398 233.634 423.635 237.418 423.259 C 237.476 422.265 236.632 420.794 236.276 419.861 C 235.139 416.88 234.293 413.037 232.505 410.406 C 226.366 410.169 220.072 410.813 213.963 411.241 Z M 221.03 595.109 C 220.738 595.828 220.594 595.6 220.959 595.914 C 226.622 595.342 232.466 596.409 238.096 595.698 C 239.047 594.404 239.38 592.556 239.93 591.06 C 241.158 587.722 242.717 584.112 243.317 580.6 C 239.977 580.066 236.374 580.38 232.997 580.38 C 230.923 580.38 228.573 580.084 226.549 580.555 C 224.485 585.298 222.857 590.27 221.03 595.109 Z M 223.517 432.3 C 225.826 437.27 227.292 442.552 229.259 447.657 C 229.949 448.163 231.618 447.773 232.496 447.78 C 235.663 447.802 238.834 447.814 242 447.78 C 242.687 447.773 245.092 448.087 245.506 447.54 C 244.795 442.413 242.686 436.822 240.708 432.056 C 234.982 431.985 229.23 431.983 223.517 432.3 Z M 229.938 569.566 C 229.747 570.275 229.635 570.994 229.54 571.721 C 233.18 571.896 236.854 571.761 240.501 571.786 C 242.475 571.8 244.628 572.106 246.579 571.86 C 247.22 571.114 247.29 569.004 247.517 568.023 C 248.157 565.262 248.76 562.471 249.493 559.734 C 249.731 558.846 250.468 557.236 250.256 556.329 C 244.905 555.779 239.271 556.151 233.897 556.259 C 232.781 560.623 231.521 565.354 229.938 569.566 Z M 231.714 456.351 C 233.29 461.73 234.517 467.188 235.8 472.641 C 236.938 472.891 238.286 472.623 239.457 472.625 C 242.142 472.631 244.82 472.552 247.5 472.458 C 248.181 472.434 250.828 472.839 251.266 472.321 C 250.519 466.993 249.45 461.388 247.955 456.215 C 247.263 455.535 245.008 456.024 244.04 456.026 C 239.979 456.036 235.742 455.792 231.714 456.351 Z M 235.896 544.086 C 235.712 545.201 235.391 546.367 235.83 547.439 C 239.507 547.855 243.304 547.622 247.004 547.628 C 248.521 547.63 250.575 547.993 252.013 547.54 C 252.854 544.082 253.022 540.357 253.528 536.833 C 253.726 535.453 254.266 533.324 253.745 532.021 C 251.602 531.738 249.35 531.937 247.189 531.909 C 244.21 531.87 240.966 531.623 238.03 532.146 C 237.345 533.226 237.279 535.173 237.104 536.452 C 236.758 538.985 236.451 541.591 235.896 544.086 Z M 237.739 481.833 C 238.734 486.943 238.233 492.646 239.661 497.624 C 244.365 497.591 249.58 498.221 254.224 497.502 C 254.825 496.435 254.316 494.26 254.217 493.067 C 253.906 489.335 253.477 485.608 252.921 481.905 C 251.917 481.264 249.696 481.737 248.498 481.736 C 244.914 481.735 241.318 481.658 237.739 481.833 Z M 239.494 511.117 C 239.269 514.801 239.266 518.508 239.152 522.195 C 243.096 522.136 247.059 522.158 251.006 522.18 C 251.776 522.184 254.453 522.588 254.923 522.052 C 254.88 518.391 255.18 514.675 255.198 510.999 C 255.204 509.687 255.697 507.534 255.205 506.347 C 251.49 506.164 247.717 506.324 243.997 506.353 C 242.816 506.362 240.665 506.005 239.671 506.652 C 239.651 508.113 239.731 509.673 239.494 511.117 Z" opacity="1" fill="rgb(156,206,207)" fill-rule="evenodd"/>
<path d=" M 294.42 426.937 C 295.219 425.93 298.913 426.543 300.174 426.643 C 300.632 427.748 300.31 429.307 300.298 430.493 C 300.27 433.16 300.297 435.829 300.299 438.496 C 300.306 448.163 300.29 457.83 300.296 467.496 C 300.313 495.999 300.379 524.503 300.386 553.006 C 300.388 561.837 300.358 570.669 300.341 579.5 C 300.336 582.333 300.349 585.167 300.336 587.999 C 300.331 589.108 300.072 590.561 300.331 591.63 C 298.542 591.741 296.747 591.454 294.956 591.452 C 294.294 590.967 294.567 589.664 294.573 588.885 C 294.595 586.423 294.567 583.961 294.566 581.499 C 294.558 571.499 294.581 561.5 294.578 551.5 C 294.568 510.001 295.018 468.432 294.42 426.937 Z" opacity="1" fill="rgb(53,54,58)" fill-rule="evenodd"/>
<path d=" M 339.823 565.552 C 340.761 564.456 341.552 563.292 342.575 562.251 C 343.439 562.331 344.191 563.421 344.965 563.859 C 346.537 564.75 348.549 565.124 350.34 565.215 C 352.018 565.301 356.192 564.469 354.49 561.906 C 350.736 558.354 343.011 560.792 340.758 555.096 C 339.353 551.544 341.915 547.768 345.161 546.37 C 349.425 544.534 355.919 545.612 359.444 548.537 C 359.089 549.531 357.699 552.477 356.585 552.711 C 354.315 550.776 352.043 549.955 349.048 550.227 C 347.015 550.411 345.273 551.919 346.657 554.002 C 350.587 556.444 356.731 554.804 359.561 559.293 C 362.14 563.383 359.207 568.059 354.935 569.198 C 349.168 570.737 344.446 569.05 339.664 566.027 C 339.717 565.869 339.77 565.71 339.823 565.552 Z" opacity="1" fill="rgb(22,49,86)" fill-rule="evenodd"/>
<path d=" M 340.418 457.455 C 341.898 456.39 343.711 456.559 345.448 456.538 C 348.982 456.496 353.132 456.027 356.593 456.781 C 360.224 461.505 363.053 466.911 366.238 471.939 C 368.193 475.026 370.775 478.244 372.201 481.604 C 372.597 481.569 373.031 480.372 373.218 480.049 C 374.141 478.456 375.089 476.878 376.008 475.283 C 378.487 470.977 381.133 466.769 383.752 462.548 C 384.831 460.809 385.873 458.082 387.527 456.85 C 391.362 456.452 395.367 456.765 399.223 456.771 C 400.555 456.774 402.718 456.374 403.786 457.318 C 404.465 458.932 404.257 460.789 404.264 462.505 C 404.276 465.504 404.289 468.503 404.293 471.502 C 404.309 482.335 404.323 493.168 404.322 504 C 404.322 507.499 404.333 511 404.293 514.499 C 404.285 515.165 404.608 517.644 404.004 517.926 C 400.587 517.782 397.032 518.077 393.588 518.083 C 392.249 518.085 390.026 518.401 388.886 517.56 C 387.997 515.149 388.562 512.034 388.566 509.492 C 388.574 503.993 388.588 498.494 388.562 492.994 C 388.55 490.244 388.807 487.372 388.517 484.637 C 388.436 483.87 388.872 480.919 387.901 481.726 C 384.477 487.413 380.643 492.945 376.997 498.501 C 375.713 500.457 374.456 504.163 372.47 505.41 C 370.837 505.072 369.38 501.864 368.489 500.543 C 365.255 495.747 362.267 490.801 359.195 485.901 C 358.277 484.437 357.507 482.885 356.611 481.414 C 356.306 480.915 356.296 479.912 355.711 479.909 C 355.612 479.909 355.612 481.812 355.612 481.946 C 355.618 484.133 355.451 486.317 355.446 488.505 C 355.429 495.839 355.466 503.173 355.428 510.507 C 355.419 512.336 355.436 514.166 355.372 515.994 C 355.354 516.509 355.405 517.491 354.951 517.819 C 351.754 518.34 348.237 517.936 345.002 517.951 C 343.56 517.958 341.758 518.295 340.511 517.446 C 339.741 516.095 340.123 514.023 340.103 512.506 C 340.054 508.669 340.076 504.831 340.079 500.994 C 340.086 491.495 340.082 481.995 340.082 472.496 C 340.082 467.637 339.755 462.651 340.132 457.809 C 340.227 457.691 340.323 457.573 340.418 457.455 Z" opacity="1" fill="rgb(20,52,93)" fill-rule="evenodd"/>
<path d=" M 371.307 546.404 C 372.452 545.413 375.214 545.937 376.699 545.898 C 379.993 545.813 383.291 545.928 386.585 545.907 C 388.621 545.894 390.89 545.58 392.896 545.904 C 392.774 547.392 392.738 548.917 392.786 550.409 C 390.29 550.54 387.725 550.621 385.229 550.574 C 384.92 554.918 385.092 559.326 385.142 563.679 C 385.161 565.338 385.69 568.072 384.889 569.567 C 383.09 569.55 381.294 569.841 379.522 569.374 C 378.946 563.154 379.821 556.831 379.242 550.628 C 376.632 550.575 373.936 550.427 371.333 550.568 C 371.326 549.18 371.289 547.794 371.307 546.404 Z" opacity="1" fill="rgb(21,53,93)" fill-rule="evenodd"/>
<path d=" M 400.006 569.082 C 401.677 564.069 404.563 559.2 406.776 554.394 C 408.026 551.68 409.151 548.244 410.991 545.896 C 412.695 545.496 414.458 545.824 416.179 545.707 C 417.29 547.282 417.956 549.577 418.823 551.332 C 420.876 555.488 422.878 559.676 425.037 563.778 C 425.8 565.227 426.559 566.691 427.272 568.165 C 427.427 568.486 427.972 569.325 427.88 569.638 C 425.985 569.833 423.497 569.734 421.609 569.424 C 420.986 567.704 420.204 565.694 419.063 564.255 C 416.644 564.293 414.203 564.277 411.784 564.214 C 410.678 564.186 409.025 563.862 407.988 564.26 C 407.12 566.058 406.379 568.037 405.279 569.703 C 403.599 570.121 401.56 569.674 399.835 569.715 C 399.774 569.322 399.756 569.54 400.006 569.082 Z M 410.419 558.537 C 410.168 559.173 410.284 558.833 410.082 559.56 C 412.456 560.118 414.929 559.603 417.328 559.798 C 416.241 558.043 415.42 556.054 414.561 554.177 C 414.341 553.696 413.624 551.426 413.347 551.896 C 412.6 554.142 411.453 556.399 410.419 558.537 Z" opacity="1" fill="rgb(19,47,86)" fill-rule="evenodd"/>
<path d=" M 420.942 483.099 C 421.366 479.489 422.392 475.915 424.071 472.69 C 435.409 450.919 469.34 449.785 482.652 470.241 C 484.41 472.943 485.765 475.969 486.57 479.09 C 487.591 483.048 488.017 487.342 487.529 491.414 C 487.108 494.927 486.084 498.326 484.419 501.45 C 473.38 522.167 441.67 525.291 426.979 506.635 C 424.938 504.043 423.346 501.143 422.321 498.001 C 420.773 493.258 420.36 488.045 420.942 483.099 Z M 436.935 483.096 C 435.581 490.521 438.519 498.944 445.069 502.993 C 455.575 509.488 469.329 502.808 471.436 490.935 C 472.847 482.98 469.548 475.121 462.37 471.148 C 452.044 465.432 439.051 471.491 436.935 483.096 Z" opacity="1" fill="rgb(19,52,94)" fill-rule="evenodd"/>
<path d=" M 437.886 556.093 C 439.325 548.729 445.888 544.935 453.116 545.59 C 455.695 545.824 458.093 546.657 460.168 548.213 C 460.496 548.459 461.867 549.292 461.894 549.697 C 460.737 550.903 459.36 552.024 458.338 553.344 C 457.788 553.118 457.36 552.488 456.881 552.135 C 455.263 550.937 453.378 550.268 451.365 550.235 C 446.081 550.146 442.295 555.502 444.049 560.525 C 445.32 564.164 449.432 565.885 453.058 565.317 C 455.154 564.989 456.814 563.849 458.455 562.582 C 459.58 563.1 460.421 564.256 461.363 565.058 C 461.575 565.239 462.303 565.555 462.29 565.847 C 460.855 568.052 456.93 569.435 454.48 569.86 C 445.776 571.368 436.556 565.771 437.886 556.093 Z" opacity="1" fill="rgb(18,49,89)" fill-rule="evenodd"/>
<path d=" M 475.218 546.23 C 477.034 546.081 478.875 546.281 480.675 546.077 C 480.693 549.617 480.795 553.16 480.801 556.7 C 481.176 557.189 481.849 556.313 482.196 555.966 C 483.481 554.678 484.782 553.351 486.033 552.029 C 487.681 550.288 489.87 546.865 492.112 545.962 C 493.621 545.355 496.928 545.513 498.449 545.981 C 497.878 547.136 496.454 548.003 495.532 548.902 C 493.285 551.095 491.184 553.667 488.648 555.524 C 491.526 560.518 495.91 565.08 499.467 569.593 C 498.979 569.863 498.009 569.7 497.473 569.705 C 495.96 569.718 493.712 570.126 492.355 569.415 C 490.482 567.109 488.652 564.688 486.893 562.292 C 486.355 561.559 485.39 559.719 484.556 559.401 C 483.754 560.782 482.353 561.944 481.206 563.056 C 480.334 564.854 481.013 567.417 480.672 569.374 C 479.509 570.046 476.754 569.442 475.429 569.463 C 474.151 561.936 475.736 553.839 475.218 546.23 Z" opacity="1" fill="rgb(19,49,90)" fill-rule="evenodd"/>
<path d=" M 492.478 458.644 C 492.394 457.968 492.366 458.306 492.58 457.631 C 494.02 456.701 495.85 456.831 497.504 456.816 C 501.063 456.785 504.886 456.48 508.408 457.008 C 511.139 460.335 512.107 465.922 513.608 469.923 C 516.238 476.936 518.993 483.958 521.323 491.075 C 522.1 493.45 523.602 495.897 523.955 498.38 C 524.689 497.385 524.895 495.895 525.26 494.729 C 525.976 492.442 526.872 490.199 527.669 487.936 C 530.09 481.059 532.584 474.21 535.013 467.336 C 536.198 463.981 537.1 459.895 538.952 456.866 C 542.718 456.721 546.481 456.735 550.251 456.721 C 551.384 456.717 553.414 456.343 554.239 457.272 C 554.869 459.189 553.692 460.685 553.012 462.398 C 551.611 465.927 550.254 469.474 548.871 473.01 C 545.024 482.846 541.062 492.635 537.031 502.399 C 534.91 507.537 532.976 512.898 530.262 517.756 C 529.025 518.168 527.308 517.967 526.004 517.963 C 523.259 517.955 519.51 518.606 516.898 517.747 C 515.271 516.008 514.473 513.325 513.591 511.155 C 512.114 507.519 510.612 503.895 509.135 500.26 C 505.412 491.099 501.731 481.921 498.059 472.743 C 496.257 468.24 493.466 463.381 492.478 458.644 Z" opacity="1" fill="rgb(20,52,93)" fill-rule="evenodd"/>
<path d=" M 529.389 546.007 C 531.353 545.976 533.422 545.832 535.376 546.077 C 536.891 548.743 538.762 551.258 540.473 553.802 C 540.941 554.498 541.232 555.502 541.769 556.104 C 542.621 555.376 543.281 553.84 543.876 552.859 C 545.225 550.632 546.554 548.026 548.322 546.11 C 550.473 545.696 552.757 545.939 554.932 545.956 C 552.765 549.889 549.347 553.489 546.785 557.215 C 546.091 558.224 545.187 559.137 544.758 560.304 C 544.124 562.03 544.399 564.205 544.366 566.015 C 544.345 567.176 544.07 568.666 544.318 569.777 C 542.663 569.605 540.903 569.7 539.236 569.685 C 539.078 567.007 539.623 564.009 539.032 561.381 C 538.608 559.499 536.818 557.634 535.754 556.061 C 533.637 552.928 531.745 549.173 529.147 546.429 C 529.228 546.288 529.308 546.148 529.389 546.007 Z" opacity="1" fill="rgb(17,49,90)" fill-rule="evenodd"/>
<path d=" M 563.389 555.077 C 566.254 541.832 588.5 542.644 590.758 555.844 C 591.002 557.269 590.987 558.819 590.695 560.235 C 587.953 573.499 565.634 573.124 563.295 559.832 C 563.026 558.305 563.061 556.591 563.389 555.077 Z M 568.953 556.601 C 567.545 566.299 583.281 568.883 584.77 559.433 C 585.171 556.89 584.675 554.269 582.774 552.421 C 578.345 548.116 569.889 550.152 568.953 556.601 Z" opacity="1" fill="rgb(17,47,90)" fill-rule="evenodd"/>
<path d=" M 568.989 459.109 C 569.023 458.504 569.077 457.904 569.142 457.302 C 572.379 456.093 576.594 456.784 580.007 456.805 C 581.217 456.813 583.043 456.509 584.039 457.312 C 584.716 459.175 584.38 461.543 584.375 463.505 C 584.366 467.672 584.384 471.84 584.392 476.007 C 584.408 485.008 584.409 494.009 584.42 503.01 C 584.426 507.691 584.951 512.73 584.306 517.362 C 583.061 518.285 580.973 518.156 579.508 518.135 C 576.134 518.086 572.701 517.84 569.337 517.906 C 568.65 517.131 569.027 514.727 569.024 513.703 C 569.014 510.135 569.055 506.567 569.054 502.998 C 569.052 494.165 569.105 485.331 569.049 476.498 C 569.012 470.72 568.673 464.884 568.989 459.109 Z" opacity="1" fill="rgb(21,53,94)" fill-rule="evenodd"/>
<path d=" M 602.871 458.587 C 603.007 457.987 602.922 458.295 603.133 457.665 C 603.986 456.743 605.332 456.786 606.502 456.774 C 609.336 456.744 612.171 456.776 615.005 456.775 C 623.506 456.773 632.006 456.77 640.507 456.76 C 643.008 456.757 645.508 456.761 648.009 456.779 C 649.207 456.787 650.736 456.551 651.869 456.95 C 652.238 460.873 652.81 465.824 651.721 469.678 C 649.098 470.148 646.158 469.802 643.5 469.796 C 638.166 469.784 632.833 469.795 627.499 469.784 C 625.365 469.779 623.228 469.759 621.095 469.8 C 620.347 469.815 619.195 469.632 618.652 470.185 C 618.521 473.672 618.739 477.176 618.592 480.657 C 625.062 480.72 631.535 480.694 638.007 480.718 C 641.047 480.729 644.503 480.28 647.484 480.894 C 647.61 484.958 647.66 488.984 647.534 493.043 C 638.147 492.361 628.207 492.654 618.802 493.174 C 618.24 494.233 618.418 495.64 618.413 496.818 C 618.401 499.455 618.575 502.118 618.527 504.745 C 624.64 504.373 630.88 504.731 637.006 504.739 C 641.917 504.745 647.098 504.316 651.976 504.899 C 652.018 508.156 652.193 511.409 652.174 514.676 C 652.169 515.562 652.452 517.346 651.768 518.013 C 635.69 517.919 619.581 518.173 603.5 517.872 C 602.876 517.519 603.198 515.023 603.195 514.319 C 603.181 510.715 603.144 507.111 603.129 503.506 C 603.069 488.552 602.505 473.537 602.871 458.587 Z" opacity="1" fill="rgb(21,53,93)" fill-rule="evenodd"/>
<path d=" M 603.682 546.182 C 605.521 545.994 607.365 546.032 609.211 546.027 C 609.276 549.776 609.267 553.524 609.291 557.274 C 609.303 559.045 609.083 561.037 609.983 562.643 C 612.111 566.442 618.33 566.322 620.426 562.596 C 621.257 561.118 621.082 559.139 621.1 557.501 C 621.141 553.713 621.288 549.874 621.054 546.093 C 622.898 545.843 624.723 545.972 626.576 545.962 C 627.047 547.587 626.727 549.81 626.725 551.502 C 626.721 556.16 627.766 562.527 624.525 566.357 C 620.231 571.431 609.312 571.522 605.386 565.938 C 603.827 563.721 603.804 561.112 603.75 558.502 C 603.666 554.396 603.768 550.287 603.682 546.182 Z" opacity="1" fill="rgb(16,50,88)" fill-rule="evenodd"/>
<path d=" M 641.328 545.916 C 644.913 545.818 648.486 545.841 652.074 545.922 C 654.343 545.973 656.83 545.903 658.908 546.957 C 663.125 549.096 664.998 554.294 662.207 558.413 C 661.223 559.865 659.552 560.737 658.024 561.508 C 659.598 563.529 661.138 565.581 662.732 567.587 C 662.984 567.903 664.34 569.407 664.275 569.637 C 662.55 569.638 658.926 570.136 657.446 569.321 C 655.668 567.195 654.22 564.813 652.358 562.756 C 651.04 561.928 648.828 562.3 647.34 562.353 C 646.432 564.355 647.987 567.632 646.7 569.52 C 644.929 569.725 643.168 569.452 641.398 569.516 C 641.01 564.387 641.244 559.149 641.234 554.003 C 641.229 551.448 640.763 548.402 641.328 545.916 Z M 647.025 551.632 C 646.849 553.625 646.73 555.841 647.083 557.817 C 649.793 557.592 653.864 558.766 656.261 557.121 C 658.254 555.754 658.413 552.214 656.059 551.068 C 653.83 549.984 649.44 550.189 647.11 550.793 C 647.081 551.073 647.053 551.352 647.025 551.632 Z" opacity="1" fill="rgb(22,51,91)" fill-rule="evenodd"/>
<path d=" M 666.948 508.003 C 668.093 506.469 669.224 505.04 670.591 503.695 C 672.05 503.763 674.334 505.964 675.624 506.748 C 679.02 508.81 682.567 510.442 686.427 511.425 C 691.453 512.706 697.164 512.602 701.82 510.11 C 705.989 507.879 708.433 502.793 706.029 498.327 C 704.011 494.577 699.498 493.119 695.659 492.039 C 686.502 489.463 671.436 488.635 669.067 477.016 C 668.66 475.023 668.615 472.968 668.823 470.947 C 670.263 456.951 687.207 454.475 698.255 456.781 C 700.329 457.214 702.404 457.766 704.347 458.625 C 707.041 459.815 710.352 461.171 712.352 463.426 C 712.34 464.904 709.797 467.166 709.037 468.527 C 708.896 468.78 708.491 469.792 708.157 469.836 C 702.805 463.606 692.378 461.614 684.68 463.105 C 679.148 464.176 674.654 469.162 676.715 475.014 C 678.502 480.09 684.531 481.721 689.199 482.837 C 697.281 484.77 707.437 486.204 712.458 493.67 C 716.564 499.774 714.679 508.39 709.585 513.262 C 706.743 515.98 702.678 517.679 698.866 518.48 C 689.93 520.355 680.391 517.964 672.623 513.46 C 670.476 512.215 668.755 510.386 666.668 509.1 C 666.634 508.315 666.542 508.681 666.948 508.003 Z" opacity="1" fill="rgb(19,50,92)" fill-rule="evenodd"/>
<path d=" M 696.486 547.102 C 696.499 546.941 696.512 546.78 696.525 546.619 C 697.8 545.584 700.395 546.052 702.005 546.047 C 706.686 546.031 711.639 545.607 716.288 546.134 C 716.256 547.516 716.345 548.972 716.421 550.354 C 715.291 551.014 713.311 550.655 712.041 550.646 C 708.845 550.626 705.605 550.445 702.417 550.72 C 702.068 552.352 702.053 554.378 702.32 556.029 C 706.511 556.055 711.111 555.546 715.255 556.064 C 715.206 556.834 715.761 560.075 715.131 560.481 C 710.832 560.539 706.542 560.422 702.249 560.625 C 702.214 563.349 701.616 566.787 702.141 569.438 C 700.82 569.652 697.679 569.797 696.599 569.119 C 696.453 564.915 696.601 560.702 696.55 556.495 C 696.512 553.397 696.113 550.186 696.486 547.102 Z" opacity="1" fill="rgb(21,52,92)" fill-rule="evenodd"/>
<path d=" M 724.955 568.043 C 727.702 562.986 730.077 557.746 732.654 552.602 C 733.693 550.528 734.432 547.52 736.118 545.924 C 737.853 545.747 739.557 545.838 741.293 545.964 C 744.989 551.519 747.261 558.258 750.289 564.202 C 751.16 565.912 751.852 567.907 752.986 569.454 C 752.598 569.743 752.075 569.418 751.633 569.446 C 750.023 569.548 748.421 569.697 746.809 569.45 C 745.934 567.668 745.114 565.874 744.151 564.14 C 740.466 564.354 736.698 563.987 733.009 563.906 C 732.142 565.725 731.198 567.495 730.277 569.281 C 729.046 569.731 725.733 569.651 724.564 569.059 C 724.879 568.316 724.756 568.657 724.955 568.043 Z M 735.281 559.216 C 735.302 559.307 735.323 559.399 735.345 559.491 C 737.031 559.62 738.794 559.506 740.483 559.413 C 740.805 559.395 742.139 559.718 742.32 559.504 C 741.124 557.873 740.387 555.756 739.611 553.9 C 739.401 553.399 739.207 552.016 738.777 551.74 C 738.612 551.634 738.522 552.039 738.395 552.188 C 737.553 554.552 736.546 557.047 735.281 559.216 Z" opacity="1" fill="rgb(17,50,91)" fill-rule="evenodd"/>
<path d=" M 727.152 457.222 C 732.83 456.522 738.789 457.04 744.506 457.037 C 755.401 457.032 766.309 457.078 777.196 457.04 C 777.743 458.354 777.484 460.396 777.48 461.814 C 777.479 462.267 777.604 463.37 777.408 463.751 C 770.456 463.79 763.225 463.137 756.312 463.871 C 756.266 476.078 756.272 488.292 756.287 500.503 C 756.292 504.503 756.297 508.503 756.302 512.503 C 756.304 514.296 756.01 516.37 756.339 518.132 C 753.97 518.414 751.339 517.918 748.933 517.973 C 748.375 513.425 748.786 508.587 748.78 504.004 C 748.767 495.17 748.74 486.337 748.741 477.504 C 748.742 474.111 748.727 470.717 748.749 467.324 C 748.754 466.586 749.069 464.398 748.552 463.888 C 743.581 463.496 738.484 463.75 733.498 463.749 C 731.646 463.748 728.873 464.302 727.161 463.639 C 727.137 461.5 727.197 459.359 727.152 457.222 Z" opacity="1" fill="rgb(23,54,94)" fill-rule="evenodd"/>
<path d=" M 758.477 546.74 C 760.347 546.108 762.152 546.492 764.065 546.211 C 766.02 550.335 767.664 554.598 769.54 558.757 C 770.054 559.898 770.532 562.703 771.479 563.411 C 773.282 559.343 774.845 555.049 776.55 550.911 C 777.062 549.668 777.714 546.885 778.823 546.164 C 780.743 546.084 782.773 546.16 784.674 545.912 C 784.722 547.237 782.965 549.659 782.412 550.886 C 780.455 555.225 778.576 559.596 776.606 563.932 C 775.967 565.338 775.084 568.644 773.815 569.503 C 772.071 569.726 770.288 569.442 768.53 569.492 C 766.994 568.048 766.243 564.726 765.4 562.794 C 763.073 557.467 760.552 552.149 758.477 546.74 Z" opacity="1" fill="rgb(17,50,92)" fill-rule="evenodd"/>
<path d=" M 777.82 516.994 C 784.077 503.342 790.387 489.709 796.812 476.132 C 798.824 471.88 800.744 467.576 802.689 463.291 C 803.649 461.176 804.401 458.738 805.69 456.807 C 807.275 455.613 810.94 456.358 812.812 456.493 C 815.717 460.792 817.501 466.247 819.783 470.913 C 825.096 481.773 830.049 492.804 835.272 503.703 C 836.796 506.885 838.248 510.093 839.761 513.281 C 840.529 514.9 841.186 516.824 842.267 518.253 C 840.013 517.807 837.04 518.12 834.718 518.117 C 833.621 517.275 832.979 515.05 832.316 513.82 C 830.344 510.16 828.574 506.382 826.763 502.64 C 823.534 501.64 818.884 502.422 815.502 502.422 C 807.911 502.423 800.118 501.906 792.548 502.443 C 791.599 503.227 791.096 504.95 790.533 506.043 C 789.064 508.897 787.819 511.86 786.399 514.736 C 785.93 515.686 785.465 517.292 784.672 517.989 C 783.067 518.307 780.966 518.036 779.333 517.914 C 778.724 517.868 778.073 518.046 777.674 517.555 C 777.723 517.368 777.771 517.181 777.82 516.994 Z M 795.3 495.719 C 795.291 495.833 795.282 495.946 795.273 496.059 C 802.484 496.237 809.778 495.904 817.005 495.931 C 818.693 495.938 820.386 495.85 822.072 495.867 C 822.291 495.869 823.809 496.118 823.832 495.988 C 819.854 488.668 816.845 480.727 813.245 473.21 C 812.365 471.373 811.451 469.534 810.675 467.65 C 810.362 466.89 809.986 465.463 809.243 465.091 C 807.87 469.897 805.006 474.656 802.892 479.197 C 800.366 484.622 798.309 490.554 795.3 495.719 Z" opacity="1" fill="rgb(19,50,92)" fill-rule="evenodd"/>
<path d=" M 793.891 556.086 C 796.233 542.158 819.091 542.008 821.758 555.796 C 822.044 557.275 821.945 558.929 821.672 560.405 C 818.902 575.383 791.189 572.15 793.891 556.086 Z M 799.92 556.08 C 797.618 565.46 812.841 569.31 815.442 560.338 C 815.812 559.06 815.947 557.56 815.677 556.25 C 814.043 548.327 801.827 548.31 799.92 556.08 Z" opacity="1" fill="rgb(18,50,92)" fill-rule="evenodd"/>
<path d=" M 834.781 546.245 C 837.799 545.782 840.927 546.086 843.968 546.134 C 847.467 546.189 851.415 545.896 854.364 548.146 C 859.051 551.72 857.417 559.99 851.654 561.406 C 853.28 562.922 854.531 565.159 855.844 566.954 C 856.376 567.681 857.352 568.5 857.567 569.369 C 855.493 569.42 853.356 569.631 851.289 569.507 C 849.257 567.449 847.933 564.612 845.739 562.73 C 844.218 562.288 842.427 562.354 840.852 562.368 C 840.195 564.416 840.479 567.244 840.375 569.415 C 838.556 569.487 836.706 569.337 834.895 569.477 C 834.348 566.981 834.729 564.054 834.727 561.502 C 834.724 556.416 834.755 551.329 834.781 546.245 Z M 840.538 551.627 C 840.361 553.407 839.995 556.08 840.593 557.777 C 843.979 557.57 852.362 559.365 851.08 553.374 C 850.924 552.644 850.635 552.056 850.173 551.477 C 849.369 550.872 848.363 550.881 847.391 550.821 C 845.413 550.698 842.426 550.246 840.604 551.04 C 840.582 551.236 840.56 551.432 840.538 551.627 Z" opacity="1" fill="rgb(21,51,92)" fill-rule="evenodd"/>
<path d=" M 849.444 484.613 C 850.029 480.681 850.588 476.997 852.318 473.357 C 858.072 461.251 870.498 455.011 883.655 455.975 C 889.825 456.427 895.591 458.137 900.837 461.471 C 902.014 462.219 905.309 463.911 905.476 465.389 C 904.676 467.131 902.325 469.176 900.89 470.456 C 900.2 470.295 899.28 469.239 898.707 468.799 C 897.32 467.736 895.85 466.783 894.317 465.946 C 888.668 462.862 881.852 461.697 875.517 463.06 C 853.684 467.758 851.146 500.298 870.64 509.827 C 877.665 513.261 886.31 512.989 893.218 509.435 C 896.034 507.986 898.241 505.549 900.996 504.125 C 902.777 504.794 904.797 506.549 905.971 508.025 C 906.196 509.541 902.286 511.915 901.136 512.728 C 895.329 516.832 888.778 519.168 881.629 519.235 C 869.783 519.345 857.813 513.261 852.466 502.411 C 849.793 496.988 848.92 490.593 849.444 484.613 Z" opacity="1" fill="rgb(20,51,93)" fill-rule="evenodd"/>
<path d=" M 870.865 546.299 C 872.654 546.218 874.708 545.98 876.473 546.293 C 876.332 548.184 876.57 550.11 876.598 551.998 C 876.684 557.822 876.509 563.629 876.382 569.441 C 874.594 569.332 872.751 569.285 870.962 569.378 C 870.317 567.461 870.819 564.529 870.824 562.501 C 870.838 557.121 871.124 551.671 870.865 546.299 Z" opacity="1" fill="rgb(13,49,88)" fill-rule="evenodd"/>
<path d=" M 889.213 546.202 C 896.285 544.941 903.916 546.196 911.076 545.907 C 911.678 547.254 910.859 549.241 911.211 550.673 C 908.658 550.405 905.804 550.55 903.236 550.716 C 903.238 555.525 903.105 560.337 903.156 565.151 C 903.163 565.84 903.563 569.196 902.968 569.491 C 901.159 569.355 899.216 569.378 897.405 569.472 C 896.789 568.056 897.272 565.564 897.266 564.005 C 897.249 559.596 896.952 555.063 897.26 550.67 C 894.627 550.675 891.955 550.389 889.329 550.539 C 889.154 549.097 889.224 547.652 889.213 546.202 Z" opacity="1" fill="rgb(22,56,96)" fill-rule="evenodd"/>
<path d=" M 923.779 456.838 C 926.233 456.792 928.68 456.796 931.136 456.801 C 931.544 457.434 931.295 458.74 931.297 459.497 C 931.303 461.831 931.301 464.165 931.303 466.5 C 931.311 474.845 930.983 483.264 931.331 491.6 C 932.566 491.105 933.602 489.613 934.543 488.668 C 936.727 486.472 938.875 484.242 941.084 482.071 C 947.267 475.994 953.322 469.765 959.634 463.823 C 962.062 461.537 964.397 458.896 967.063 456.896 C 969.79 456.238 973.752 456.538 976.536 456.849 C 976.095 457.957 974.937 458.769 974.077 459.572 C 972.352 461.181 970.638 462.799 968.944 464.442 C 962.421 470.766 956.024 477.331 949.327 483.455 C 949.387 484.366 950.641 485.58 951.228 486.314 C 952.952 488.469 954.687 490.62 956.447 492.745 C 961.119 498.386 965.767 504.053 970.473 509.665 C 971.992 511.477 973.463 513.322 974.97 515.144 C 975.732 516.066 976.929 517.217 977.363 518.333 C 974.68 518.248 970.689 519.187 968.206 518.13 C 961.976 510.977 956.108 503.44 950.014 496.163 C 948.459 494.306 946.917 492.442 945.357 490.591 C 944.922 490.074 944.234 488.977 943.593 489.06 C 940.827 491.629 938.08 494.192 935.431 496.902 C 934.257 498.104 932.579 499.469 931.798 500.973 C 931.157 502.205 931.637 504.501 931.6 505.879 C 931.491 510.002 931.854 514.194 931.372 518.29 C 928.861 518.273 926.21 518.035 923.715 518.23 C 923.254 513.917 923.646 509.345 923.645 505.006 C 923.643 496.338 923.603 487.67 923.598 479.001 C 923.596 474.001 923.586 469.001 923.604 464.001 C 923.613 461.717 923.249 459.059 923.779 456.838 Z" opacity="1" fill="rgb(21,51,93)" fill-rule="evenodd"/>
<path d=" M 923.901 546.368 C 925.064 545.583 927.344 545.941 928.717 545.922 C 932.313 545.874 935.908 545.967 939.505 545.949 C 940.809 545.942 942.716 545.529 943.926 546.028 C 943.825 547.456 943.809 549.009 943.935 550.431 C 939.24 551.108 934.31 550.202 929.574 550.671 C 929.62 552.259 929.451 553.792 929.565 555.396 C 933.685 555.237 937.855 555.429 941.982 555.412 C 942.06 556.932 942.008 558.439 942.032 559.946 C 937.971 559.779 933.742 559.813 929.69 560.107 C 929.766 561.601 929.689 563.123 929.69 564.62 C 930.638 565.36 932.961 565.113 934.14 565.001 C 937.376 564.693 940.779 565.044 944.037 564.962 C 944.184 566.208 944.548 568.535 943.793 569.611 C 939.087 569.275 934.231 569.615 929.505 569.595 C 927.92 569.588 925.358 570.11 923.922 569.508 C 923.986 561.801 923.677 554.072 923.901 546.368 Z" opacity="1" fill="rgb(22,53,91)" fill-rule="evenodd"/>
<path d=" M 955.321 566.122 C 956.334 565.143 957.235 563.837 958.082 562.704 C 958.949 562.502 960.084 563.674 960.842 564.088 C 962.976 565.255 965.977 565.835 968.368 565.298 C 969.723 564.994 971.018 563.79 970.679 562.306 C 969.505 560.741 967.405 560.559 965.626 560.149 C 961.807 559.269 957.225 558.28 956.478 553.769 C 955.234 546.256 964.469 545.164 969.638 546.082 C 971.176 546.356 974.416 547.154 975.328 548.512 C 974.837 549.49 973.783 552.12 972.681 552.443 C 969.556 551.092 965.023 548.374 962.067 551.633 C 961.849 552.413 961.962 553.11 962.396 553.794 C 963.397 554.811 964.973 554.916 966.314 555.202 C 969.512 555.884 973.595 556.382 975.552 559.366 C 978.172 563.36 975.387 568.002 971.152 569.226 C 967.143 570.384 962.727 569.931 958.916 568.344 C 957.688 567.833 956.634 566.974 955.422 566.477 C 955.388 566.359 955.355 566.241 955.321 566.122 Z" opacity="1" fill="rgb(24,52,89)" fill-rule="evenodd"/>

</svg>